<?xml version="1.0" encoding="UTF-8" standalone="no"?>
<!-- Created with Inkscape (http://www.inkscape.org/) -->

<svg
   width="1024"
   height="1024"
   viewBox="0 0 270.93333 270.93333"
   version="1.1"
   id="svg5"
   inkscape:version="1.2 (dc2aedaf03, 2022-05-15)"
   sodipodi:docname="tppc-ui-icons.svg"
   xml:space="preserve"
   inkscape:export-filename="export\icon-crouch.png"
   inkscape:export-xdpi="96"
   inkscape:export-ydpi="96"
   xmlns:inkscape="http://www.inkscape.org/namespaces/inkscape"
   xmlns:sodipodi="http://sodipodi.sourceforge.net/DTD/sodipodi-0.dtd"
   xmlns:xlink="http://www.w3.org/1999/xlink"
   xmlns="http://www.w3.org/2000/svg"
   xmlns:svg="http://www.w3.org/2000/svg"
   xmlns:rdf="http://www.w3.org/1999/02/22-rdf-syntax-ns#"
   xmlns:cc="http://creativecommons.org/ns#"><sodipodi:namedview
     id="namedview7"
     pagecolor="#707070"
     bordercolor="#000000"
     borderopacity="0.25"
     inkscape:showpageshadow="2"
     inkscape:pageopacity="0"
     inkscape:pagecheckerboard="false"
     inkscape:deskcolor="#d1d1d1"
     inkscape:document-units="px"
     showgrid="false"
     inkscape:zoom="0.42192918"
     inkscape:cx="-500.08393"
     inkscape:cy="497.71386"
     inkscape:window-width="2560"
     inkscape:window-height="1377"
     inkscape:window-x="-8"
     inkscape:window-y="-8"
     inkscape:window-maximized="1"
     inkscape:current-layer="g1588"
     shape-rendering="auto"
     showguides="true"><inkscape:grid
       type="xygrid"
       id="grid2955" /></sodipodi:namedview><defs
     id="defs2"><inkscape:path-effect
       effect="bool_op"
       operand-path=""
       id="path-effect7108"
       is_visible="true"
       lpeversion="1"
       operation="diff"
       swap-operands="false"
       filltype-this="from-curve"
       filter=""
       filltype-operand="from-curve" /><inkscape:path-effect
       effect="bool_op"
       operand-path="#circle6790"
       id="path-effect6812"
       is_visible="true"
       lpeversion="1"
       operation="diff"
       swap-operands="false"
       filltype-this="from-curve"
       filter=""
       filltype-operand="from-curve" /><inkscape:path-effect
       effect="taper_stroke"
       id="path-effect10119"
       is_visible="true"
       lpeversion="1"
       stroke_width="1"
       attach_start="1"
       end_offset="0.2"
       start_smoothing="0.5"
       end_smoothing="0.5"
       jointype="extrapolated"
       start_shape="center"
       end_shape="center"
       miter_limit="100" /><inkscape:path-effect
       effect="bool_op"
       operand-path="#circle9302"
       id="path-effect9871"
       is_visible="true"
       lpeversion="1.2"
       operation="diff"
       swap-operands="false"
       filltype-this="from-curve"
       filter=""
       filltype-operand="from-curve" /><inkscape:path-effect
       effect="bool_op"
       operand-path="#circle9302"
       id="path-effect9850"
       is_visible="true"
       lpeversion="1"
       operation="diff"
       swap-operands="false"
       filltype-this="from-curve"
       filter=""
       filltype-operand="from-curve" /><inkscape:path-effect
       effect="bool_op"
       operand-path=""
       id="path-effect9585"
       is_visible="true"
       lpeversion="1"
       operation="diff"
       swap-operands="false"
       filltype-this="from-curve"
       filter=""
       filltype-operand="from-curve" /><inkscape:path-effect
       effect="bool_op"
       operand-path="#circle9302"
       id="path-effect9458"
       is_visible="true"
       lpeversion="1"
       operation="diff"
       swap-operands="false"
       filltype-this="from-curve"
       filter=""
       filltype-operand="from-curve" /><inkscape:path-effect
       effect="bool_op"
       operand-path="#circle9302"
       id="path-effect9332"
       is_visible="true"
       lpeversion="1"
       operation="diff"
       swap-operands="false"
       filltype-this="from-curve"
       filter=""
       filltype-operand="from-curve" /><inkscape:path-effect
       effect="bool_op"
       operand-path="#circle9302"
       id="path-effect9318"
       is_visible="true"
       lpeversion="1"
       operation="diff"
       swap-operands="false"
       filltype-this="from-curve"
       filter=""
       filltype-operand="from-curve" /><linearGradient
       inkscape:collect="always"
       id="linearGradient3499"><stop
         style="stop-color:#ffffff;stop-opacity:0;"
         offset="0.38285717"
         id="stop4957" /><stop
         style="stop-color:#ffffff;stop-opacity:0.39393941;"
         offset="0.79714286"
         id="stop3497" /><stop
         style="stop-color:#ffffff;stop-opacity:1;"
         offset="0.93142855"
         id="stop3495" /></linearGradient><inkscape:path-effect
       effect="taper_stroke"
       id="path-effect2591"
       is_visible="true"
       lpeversion="1"
       stroke_width="0.97989349"
       attach_start="0.5"
       end_offset="0.2"
       start_smoothing="0.5"
       end_smoothing="0.5"
       jointype="extrapolated"
       start_shape="center"
       end_shape="center"
       miter_limit="100" /><inkscape:path-effect
       effect="taper_stroke"
       id="path-effect2587"
       is_visible="true"
       lpeversion="1"
       stroke_width="0.97989349"
       attach_start="0.5"
       end_offset="0.2"
       start_smoothing="0.5"
       end_smoothing="0.5"
       jointype="extrapolated"
       start_shape="center"
       end_shape="center"
       miter_limit="100" /><inkscape:path-effect
       effect="taper_stroke"
       id="path-effect2579"
       is_visible="true"
       lpeversion="1"
       stroke_width="0.97989349"
       attach_start="0.5"
       end_offset="0.2"
       start_smoothing="0.5"
       end_smoothing="0.5"
       jointype="extrapolated"
       start_shape="center"
       end_shape="center"
       miter_limit="100" /><inkscape:path-effect
       effect="taper_stroke"
       id="path-effect2547"
       is_visible="true"
       lpeversion="1"
       stroke_width="0.97989349"
       attach_start="0.5"
       end_offset="0.2"
       start_smoothing="0.5"
       end_smoothing="0.5"
       jointype="extrapolated"
       start_shape="center"
       end_shape="center"
       miter_limit="100" /><inkscape:path-effect
       effect="bool_op"
       operand-path="#path2197"
       id="path-effect2201"
       is_visible="true"
       lpeversion="1.2"
       operation="diff"
       swap-operands="false"
       filltype-this="from-curve"
       filter=""
       filltype-operand="from-curve" /><inkscape:path-effect
       effect="bool_op"
       operand-path=""
       id="path-effect1600"
       is_visible="true"
       lpeversion="1.2"
       operation="diff"
       swap-operands="false"
       filltype-this="from-curve"
       filter=""
       filltype-operand="from-curve" /><inkscape:path-effect
       effect="bool_op"
       operand-path=""
       id="path-effect1190"
       is_visible="true"
       lpeversion="1.2"
       operation="diff"
       swap-operands="false"
       filltype-this="from-curve"
       filter=""
       filltype-operand="from-curve" /><inkscape:path-effect
       effect="bool_op"
       operand-path=""
       id="path-effect1184"
       is_visible="true"
       lpeversion="1.2"
       operation="diff"
       swap-operands="false"
       filltype-this="from-curve"
       filter=""
       filltype-operand="from-curve" /><inkscape:path-effect
       effect="bool_op"
       operand-path=""
       id="path-effect1178"
       is_visible="true"
       lpeversion="1.2"
       operation="diff"
       swap-operands="false"
       filltype-this="from-curve"
       filter=""
       filltype-operand="from-curve" /><inkscape:path-effect
       effect="bool_op"
       operand-path=""
       id="path-effect866"
       is_visible="true"
       lpeversion="1.2"
       operation="diff"
       swap-operands="false"
       filltype-this="from-curve"
       filter=""
       filltype-operand="from-curve" /><inkscape:path-effect
       effect="bool_op"
       operand-path="#circle868"
       id="path-effect862"
       is_visible="true"
       lpeversion="1.2"
       operation="diff"
       swap-operands="false"
       filltype-this="from-curve"
       filter=""
       filltype-operand="from-curve" /><inkscape:path-effect
       effect="bool_op"
       operand-path="#path13734"
       id="path-effect13750"
       is_visible="true"
       lpeversion="1.2"
       operation="diff"
       swap-operands="false"
       filltype-this="from-curve"
       filter=""
       filltype-operand="from-curve" /><inkscape:path-effect
       effect="bool_op"
       operand-path=""
       id="path-effect12862"
       is_visible="true"
       lpeversion="1"
       operation="diff"
       swap-operands="false"
       filltype-this="from-curve"
       filter=""
       filltype-operand="from-curve" /><inkscape:path-effect
       effect="bool_op"
       operand-path="#circle12918"
       id="path-effect12858"
       is_visible="true"
       lpeversion="1.2"
       operation="diff"
       swap-operands="false"
       filltype-this="from-curve"
       filter=""
       filltype-operand="from-curve" /><inkscape:path-effect
       effect="bool_op"
       operand-path=""
       id="path-effect12842"
       is_visible="true"
       lpeversion="1"
       operation="diff"
       swap-operands="false"
       filltype-this="from-curve"
       filter=""
       filltype-operand="from-curve" /><inkscape:path-effect
       effect="bool_op"
       operand-path=""
       id="path-effect12838"
       is_visible="true"
       lpeversion="1"
       operation="diff"
       swap-operands="false"
       filltype-this="from-curve"
       filter=""
       filltype-operand="from-curve" /><inkscape:path-effect
       effect="bool_op"
       operand-path="#path12613"
       id="path-effect12674"
       is_visible="true"
       lpeversion="1.2"
       operation="diff"
       swap-operands="false"
       filltype-this="from-curve"
       filter=""
       filltype-operand="from-curve" /><inkscape:path-effect
       effect="bool_op"
       operand-path="#path12449"
       id="path-effect12548"
       is_visible="true"
       lpeversion="1"
       operation="union"
       swap-operands="false"
       filltype-this="from-curve"
       filter=""
       filltype-operand="from-curve" /><inkscape:path-effect
       effect="bool_op"
       operand-path="#path4038-6"
       id="path-effect12394"
       is_visible="true"
       lpeversion="1"
       operation="diff"
       swap-operands="false"
       filltype-this="from-curve"
       filter=""
       filltype-operand="from-curve" /><inkscape:path-effect
       effect="bool_op"
       operand-path="#circle3193"
       id="path-effect4885"
       is_visible="true"
       lpeversion="1.2"
       operation="diff"
       swap-operands="false"
       filltype-this="from-curve"
       filter=""
       filltype-operand="from-curve" /><inkscape:path-effect
       effect="bool_op"
       operand-path="#path3133"
       id="path-effect4829"
       is_visible="true"
       lpeversion="1"
       operation="diff"
       swap-operands="false"
       filltype-this="from-curve"
       filter=""
       filltype-operand="from-curve" /><inkscape:path-effect
       effect="bool_op"
       operand-path="#circle3193"
       id="path-effect4795"
       is_visible="true"
       lpeversion="1"
       operation="diff"
       swap-operands="true"
       filltype-this="from-curve"
       filter=""
       filltype-operand="from-curve" /><inkscape:path-effect
       effect="bool_op"
       operand-path="#circle3193"
       id="path-effect4770"
       is_visible="true"
       lpeversion="1"
       operation="diff"
       swap-operands="false"
       filltype-this="from-curve"
       filter=""
       filltype-operand="from-curve" /><inkscape:path-effect
       effect="bool_op"
       operand-path=""
       id="path-effect3242"
       is_visible="true"
       lpeversion="1"
       operation="cut"
       swap-operands="false"
       filltype-this="from-curve"
       filter=""
       filltype-operand="from-curve" /><filter
       id="selectable_hidder_filter"
       width="1"
       height="1"
       x="0"
       y="0"
       style="color-interpolation-filters:sRGB;"
       inkscape:label="LPE boolean visibility"><feComposite
         id="boolops_hidder_primitive"
         result="composite1"
         operator="arithmetic"
         in2="SourceGraphic"
         in="BackgroundImage" /></filter><inkscape:path-effect
       effect="bool_op"
       operand-path="#circle3193"
       id="path-effect3169"
       is_visible="true"
       lpeversion="1"
       operation="symdiff"
       swap-operands="false"
       filltype-this="from-curve"
       filter=""
       filltype-operand="oddeven" /><inkscape:path-effect
       effect="join_type"
       id="path-effect3135"
       is_visible="true"
       lpeversion="1"
       linecap_type="peak"
       line_width="8"
       linejoin_type="extrp_arc"
       miter_limit="0"
       attempt_force_join="true" /><inkscape:path-effect
       effect="join_type"
       id="path-effect2874"
       is_visible="true"
       lpeversion="1"
       linecap_type="peak"
       line_width="10"
       linejoin_type="extrp_arc"
       miter_limit="0"
       attempt_force_join="true" /><inkscape:path-effect
       effect="fillet_chamfer"
       id="path-effect2872"
       is_visible="true"
       lpeversion="1"
       nodesatellites_param="F,0,0,1,0,0,0,1 @ F,0,0,1,0,0,0,1 @ F,0,0,1,0,0,0,1 @ F,0,0,1,0,0,0,1 @ F,0,0,1,0,0,0,1 @ F,0,0,1,0,0,0,1 @ F,0,0,1,0,0,0,1 @ F,0,0,1,0,0,0,1"
       unit="px"
       method="auto"
       mode="F"
       radius="0"
       chamfer_steps="1"
       flexible="false"
       use_knot_distance="true"
       apply_no_radius="true"
       apply_with_radius="true"
       only_selected="false"
       hide_knots="false" /><radialGradient
       inkscape:collect="always"
       xlink:href="#linearGradient3499"
       id="radialGradient3501"
       cx="155.76039"
       cy="199.36632"
       fx="155.76039"
       fy="199.36632"
       r="19.709881"
       gradientUnits="userSpaceOnUse"
       gradientTransform="matrix(0.42388935,0,0,0.42388935,79.363836,78.412786)" /><radialGradient
       inkscape:collect="always"
       xlink:href="#linearGradient3499"
       id="radialGradient7689"
       gradientUnits="userSpaceOnUse"
       gradientTransform="matrix(0.46900817,0,0,0.46900817,45.942171,77.557807)"
       cx="155.76039"
       cy="199.36632"
       fx="155.76039"
       fy="199.36632"
       r="19.709881" /><radialGradient
       inkscape:collect="always"
       xlink:href="#linearGradient3499"
       id="radialGradient7693"
       gradientUnits="userSpaceOnUse"
       gradientTransform="matrix(0.47121596,0,0,0.47121596,48.805028,52.697085)"
       cx="155.76039"
       cy="199.36632"
       fx="155.76039"
       fy="199.36632"
       r="19.709881" /><radialGradient
       inkscape:collect="always"
       xlink:href="#linearGradient3499"
       id="radialGradient7697"
       gradientUnits="userSpaceOnUse"
       gradientTransform="matrix(0.67629782,0,0,0.67629782,-12.245951,7.3705481)"
       cx="155.76039"
       cy="199.36632"
       fx="155.76039"
       fy="199.36632"
       r="19.709881" /><radialGradient
       inkscape:collect="always"
       xlink:href="#linearGradient3499"
       id="radialGradient7701"
       gradientUnits="userSpaceOnUse"
       gradientTransform="matrix(0.84940499,0,0,0.84940499,-84.103551,20.95994)"
       cx="155.76039"
       cy="199.36632"
       fx="155.76039"
       fy="199.36632"
       r="19.709881" /><radialGradient
       inkscape:collect="always"
       xlink:href="#linearGradient3499"
       id="radialGradient7705"
       gradientUnits="userSpaceOnUse"
       gradientTransform="matrix(0.84982867,0,0,0.84982867,-82.689507,-39.805936)"
       cx="155.76039"
       cy="199.36632"
       fx="155.76039"
       fy="199.36632"
       r="19.709881" /><radialGradient
       inkscape:collect="always"
       xlink:href="#linearGradient3499"
       id="radialGradient7709"
       gradientUnits="userSpaceOnUse"
       gradientTransform="matrix(0.68670783,0,0,0.68670783,-20.52757,37.362574)"
       cx="155.76039"
       cy="199.36632"
       fx="155.76039"
       fy="199.36632"
       r="19.709881" /><radialGradient
       inkscape:collect="always"
       xlink:href="#linearGradient3499"
       id="radialGradient7713"
       gradientUnits="userSpaceOnUse"
       gradientTransform="matrix(0.61161684,0,0,0.61161684,-33.251933,37.779511)"
       cx="155.76039"
       cy="199.36632"
       fx="155.76039"
       fy="199.36632"
       r="19.709881" /><inkscape:path-effect
       effect="fill_between_many"
       method="bsplinespiro"
       linkedpaths="#path848,0,1"
       id="path-effect10121" /></defs><g
     inkscape:groupmode="layer"
     id="layer2"
     inkscape:label="sprint"
     style="display:none"><path
       id="rect8727"
       style="display:inline;opacity:1;fill:#ffffff;stroke:none;stroke-width:8.46667;stroke-linejoin:miter;stroke-miterlimit:4;stroke-dasharray:none;paint-order:normal"
       inkscape:label="rect8727"
       d="m 30.22383,161.16721 v 7.26984 h 55.902197 c -2.409764,-2.98743 -4.780806,-5.28867 -7.057967,-6.65541 -0.34156,-0.205 -0.667137,-0.40973 -1.00459,-0.61443 z m 12.959416,18.54305 v 7.26984 h 54.53742 c -1.32915,-2.53165 -2.67304,-4.96449 -4.02249,-7.26984 z m 11.148625,18.54357 v 7.26984 h 52.309189 c -0.83483,-1.81806 -1.6687,-3.64057 -2.50683,-5.45909 -0.27937,-0.60618 -0.56367,-1.20737 -0.84594,-1.81075 z m 20.288766,18.54306 v 7.26984 h 41.105133 c -1.28766,-2.34113 -2.53736,-4.77724 -3.76566,-7.26984 z"
       sodipodi:nodetypes="cccsccccccccccsccccccc" /><path
       id="path3219"
       style="display:inline;opacity:1;fill:#ffffff;stroke:none;stroke-width:8.46667;stroke-linejoin:miter;stroke-miterlimit:4;stroke-dasharray:none;paint-order:normal"
       inkscape:label="foot"
       d="m 147.78478,18.383374 c -2.19022,5.681782 -4.58155,11.507811 -7.78144,17.661454 -12.91031,25.951004 -16.07162,33.432657 -43.971477,51.8635 -10.869548,7.180503 -29.778461,10.014647 -34.399967,31.182072 -3.534026,16.18655 5.306327,24.83203 22.10356,34.91363 23.954854,14.37756 34.663434,70.92419 53.243264,82.20894 1.74814,1.11552 25.16178,1.52179 39.7893,0.2005 11.14318,-1.00655 19.88603,-3.19016 22.70146,-14.44821 0.2892,-13.17166 -20.34615,-10.62285 -25.86768,-14.69678 -5.6043,-4.13499 -29.7864,-53.21139 -14.74845,-92.25225 15.23478,-21.194339 38.423,-41.66165 60.68053,-62.055639 -18.64915,-19.001448 -43.71404,-31.680876 -71.7491,-34.577217 z"
       sodipodi:nodetypes="ccssscscsccc" /></g><g
     inkscape:groupmode="layer"
     id="layer4"
     inkscape:label="swim-up"
     style="display:none"><path
       id="path12613"
       style="color:#000000;fill:#ff0000;stroke-width:8.46667;-inkscape-stroke:none;filter:url(#selectable_hidder_filter)"
       d="M 139.84986,96.417886 96.873156,148.10155 h 28.058234 l 8.21914,93.96688 8.41809,0.16019 11.86491,-94.12707 h 27.26758 z"
       class="UnoptimicedTransforms" /><path
       style="color:#000000;fill:#ff0000;-inkscape-stroke:none;filter:url(#selectable_hidder_filter)"
       d="M 135.4668,-7.6523437 C 56.574893,-7.6523412 -7.6523412,56.574893 -7.6523437,135.4668 -7.6523377,214.3587 56.574895,278.58593 135.4668,278.58594 214.3587,278.58593 278.58593,214.3587 278.58594,135.4668 278.58593,56.574895 214.3587,-7.6523377 135.4668,-7.6523437 Z m 0,25.4003907 c 65.16473,5e-6 117.71874,52.554012 117.71875,117.718753 -1e-5,65.16473 -52.55402,117.71874 -117.71875,117.71875 C 70.302059,253.18554 17.748052,200.63153 17.748047,135.4668 17.748049,70.302057 70.302057,17.748049 135.4668,17.748047 Z"
       id="circle3193"
       class="UnoptimicedTransforms" /><path
       style="color:#000000;fill:#ffffff;stroke-linecap:square;-inkscape-stroke:none"
       d="m 233.24815,69.772269 c -1.78333,2.103188 -4.45417,5.061548 -7.67003,8.026559 -5.98627,5.519334 -13.83415,10.580001 -19.86132,10.677734 -6.25632,0.101454 -14.65885,-4.968415 -21.13282,-10.568359 -6.47396,-5.599944 -10.99414,-11.242187 -10.99414,-11.242187 l -3.44922,-4.31836 -3.27148,4.457032 c 0,0 -4.02395,5.471028 -9.92578,10.976562 -5.90183,5.505534 -13.65155,10.564576 -19.63867,10.695312 -6.29555,0.137477 -14.7951,-4.932777 -21.35352,-10.546874 -6.55842,-5.614098 -11.15039,-11.283204 -11.15039,-11.283204 l -3.47851,-4.302734 -3.244145,4.482422 c 0,0 -3.952159,5.447681 -9.769531,10.939453 -5.817373,5.491772 -13.471017,10.547629 -19.417969,10.710937 -6.33463,0.17396 -14.929386,-4.897071 -21.572266,-10.52539 -3.934036,-3.333194 -7.174634,-6.689406 -9.163373,-8.872345 -1.642555,2.407287 -3.197987,4.879085 -4.66181,7.410912 2.125072,2.24473 4.932774,5.024614 8.350574,7.920417 7.302161,6.186909 16.843703,12.815877 27.279297,12.529297 9.940629,-0.27298 18.537181,-6.916376 24.998047,-13.015625 3.108825,-2.934823 5.653936,-5.801309 7.537106,-8.041016 2.15379,2.32262 5.19331,5.402171 8.78711,8.478516 7.21608,6.177055 16.66045,12.806843 27.04492,12.580078 9.99068,-0.218161 18.68157,-6.861415 25.22852,-12.96875 3.16454,-2.952041 5.76742,-5.842433 7.68164,-8.091797 2.12309,2.313229 5.10585,5.368746 8.64453,8.429688 7.13,6.167404 16.47711,12.798427 26.81055,12.630859 10.04088,-0.162816 18.82986,-6.802347 25.46289,-12.917968 2.58378,-2.382237 4.80197,-4.728195 6.58282,-6.729437 -1.45864,-2.569516 -3.0112,-5.078299 -4.65303,-7.521732 z"
       id="path3133"
       class="UnoptimicedTransforms"
       inkscape:path-effect="#path-effect4885"
       inkscape:original-d="m 101.32227,62.34375 -3.244145,4.482422 c 0,0 -3.952159,5.447681 -9.769531,10.939453 C 82.491221,83.257397 74.837577,88.313253 68.890625,88.476562 62.555995,88.650522 53.961239,83.579491 47.318359,77.951172 40.675479,72.322853 36.009766,66.628906 36.009766,66.628906 L 32.873047,62.792969 8.6875,89.888672 5.8671875,93.046875 12.183594,98.685547 15.003906,95.527344 32.726562,75.671875 c 2.197567,2.367687 5.271083,5.479588 9.117188,8.738281 7.302161,6.186909 16.843703,12.815877 27.279297,12.529297 9.940629,-0.27298 18.537181,-6.916376 24.998047,-13.015625 3.108825,-2.934823 5.653933,-5.801309 7.537106,-8.041016 2.15379,2.322619 5.19331,5.402171 8.78711,8.478516 7.21608,6.177055 16.66045,12.806843 27.04492,12.580078 9.99068,-0.218161 18.68157,-6.861415 25.22852,-12.96875 3.16454,-2.952041 5.76742,-5.842433 7.68164,-8.091797 2.12309,2.313229 5.10585,5.368746 8.64453,8.429688 7.13,6.167404 16.47711,12.798427 26.81055,12.630859 10.04088,-0.162816 18.82986,-6.802347 25.46289,-12.917969 3.21173,-2.961205 5.85858,-5.866356 7.80273,-8.123046 l 16.69141,19.55664 2.74805,3.21875 6.43945,-5.496094 -2.74805,-3.21875 -23.42187,-27.441406 -3.16797,4.263672 c 0,0 -4.0977,5.496291 -10.08399,11.015625 -5.98628,5.519334 -13.83415,10.580001 -19.86132,10.677734 -6.25632,0.101453 -14.65885,-4.968415 -21.13282,-10.568359 -6.47396,-5.599944 -10.99414,-11.242187 -10.99414,-11.242187 l -3.44922,-4.31836 -3.27148,4.457031 c 0,0 -4.02395,5.471029 -9.92578,10.976563 -5.90183,5.505534 -13.65155,10.564575 -19.63867,10.695312 -6.29555,0.137476 -14.7951,-4.932777 -21.35352,-10.546875 -6.55842,-5.614097 -11.15039,-11.283203 -11.15039,-11.283203 z" /><path
       id="path4038-6"
       style="display:inline;fill:#ffffff;stroke:none;stroke-width:22.0051;stroke-dasharray:none"
       d="m 128.81179,143.86884 8.55581,97.8298 12.3334,-97.8298 h 22.25859 l -32.19291,-40.72863 -33.86712,40.72863 z"
       sodipodi:nodetypes="ccccccc"
       class="UnoptimicedTransforms"
       inkscape:label="arrow" /><path
       id="path5121"
       style="opacity:1;fill:#ffffff;stroke:none;stroke-width:8.46667;stroke-linecap:square;stroke-linejoin:miter;stroke-dasharray:none"
       d="m 125.328,152.63327 c -5.42566,2.55498 -5.47253,5.58743 -5.47253,5.58743 -8.78906,0.21437 -20.382325,11.26866 -29.103517,15.5918 -2.792194,1.3841 -7.973556,-0.0799 -10.837891,0.1582 -20.537708,1.7069 -35.03489,6.1518 -38.115234,7.59571 -9.001021,4.21922 -5.219421,6.75885 -2.671875,7.73437 3.662656,1.40253 26.160936,-1.40151 43.441406,-1.32031 2.139775,0.0101 6.665543,-0.88829 8.455079,-0.92969 11.515972,-0.2667 29.227652,-8.74802 36.235492,-12.34076 z m 24.50031,24.06898 c 11.04767,-1.21122 24.46218,-6.02461 32.15021,-10.09678 3.58346,7.10941 17.11977,14.485 23.36132,17.29492 3.42725,1.54293 31.08994,0.31894 31.40235,-9.36914 -0.78053,-5.73353 -20.03791,1.81851 -28.48633,-1.84766 -5.07303,-4.65065 -19.26696,-15.18408 -19.4707,-18.28711 -0.41295,-6.28947 -4.98774,-12.73721 -11.75391,-12.5664 -0.39546,0.01 -0.7986,0.0425 -1.20885,0.0991 l 4.87877,6.17241 h -27.26758 z m 55.81817,-46.61045 c -8.62199,-1.5e-4 -15.61142,6.67459 -15.61132,14.9082 1.9e-4,8.23341 6.98954,14.90835 15.61132,14.9082 8.62158,-1.2e-4 15.61114,-6.67498 15.61133,-14.9082 1e-4,-8.23342 -6.98954,-14.90808 -15.61133,-14.9082 z m -157.683589,4.74023 c -2.834981,-0.0542 -5.76798,3.53557 2.83789,10.02735 3.169725,2.39105 15.830024,10.24095 25.558594,16.26367 2.179994,1.34958 2.867227,0.70449 5.296875,1.45312 10.106851,3.11413 18.83594,3.05274 18.83594,3.05274 0,0 8.11248,-6.28492 15.14453,-8.39453 4.77879,-1.43363 -19.342192,-6.72904 -28.031251,-7.02735 -6.296038,-0.21615 -6.951254,-0.16078 -9.22461,-2.07617 C 69.230078,142.996 58.727525,135.57808 47.962891,134.83203 Z"
       inkscape:label="person-swimming"
       sodipodi:nodetypes="ssscccssscscscssscssccssscscsscccscsccss"
       class="UnoptimicedTransforms"
       inkscape:path-effect="#path-effect12674"
       inkscape:original-d="m 137.45242,126.53374 c -8.04352,-0.0269 -18.79117,0.45048 -20.18998,0.62735 -2.97157,0.37571 -4.81383,3.42124 -1.89136,4.07728 5.40402,1.2131 19.91471,3.98229 25.78603,3.85454 5.06963,3.20232 16.15512,7.83691 19.73212,8.7359 2.09441,-0.27837 11.05958,-2.12437 13.22039,-2.88561 -6.53415,-5.57526 -25.5336,-13.36093 -28.49697,-13.98468 -1.40683,-0.29612 -4.50408,-0.41256 -8.16023,-0.42478 z m 68.19429,3.55793 c -8.62199,-1.5e-4 -15.61155,6.67452 -15.61145,14.90813 1.9e-4,8.23341 6.98967,14.90777 15.61145,14.90762 8.62158,-1.2e-4 15.61074,-6.6744 15.61093,-14.90762 1e-4,-8.23342 -6.98914,-14.90801 -15.61093,-14.90813 z m -157.684695,4.73945 c -2.834981,-0.0542 -5.767009,3.53635 2.838861,10.02812 3.169725,2.39105 15.830593,10.2414 25.559163,16.26412 2.179994,1.34958 2.86667,0.704 5.296318,1.45263 10.106851,3.11413 18.835023,3.05356 18.835023,3.05356 0,0 8.11275,-6.28471 15.1448,-8.39432 4.77879,-1.43363 -19.34162,-6.72899 -28.030679,-7.0273 -6.296038,-0.21615 -6.95054,-0.16217 -9.223896,-2.07756 -9.150781,-5.13486 -19.654956,-12.5532 -30.41959,-13.29925 z m 129.068355,6.99833 c -0.9666,0.0244 -1.97802,0.18383 -3.02824,0.49816 -8.69147,2.60136 -34.25494,6.33081 -43.13535,8.44238 -10.93674,2.60053 -11.01122,7.45019 -11.01122,7.45019 -8.78906,0.21437 -20.382442,11.26867 -29.103634,15.59181 -2.792194,1.3841 -7.97428,-0.0784 -10.838615,0.15968 -20.537709,1.7069 -35.033608,6.15098 -38.113952,7.59489 -9.001021,4.21922 -5.219735,6.75941 -2.672189,7.73493 3.662656,1.40253 26.161323,-1.40154 43.441793,-1.32034 2.139775,0.0101 6.665245,-0.88825 8.454781,-0.92965 14.623706,-0.33867 39.238936,-13.9237 39.238936,-13.9237 0,0 1.6681,1.54704 8.87026,3.26388 11.26547,2.68545 32.3711,-4.23768 42.84596,-9.78597 3.58346,7.10941 17.12033,14.48567 23.36188,17.29559 3.42725,1.54293 31.08826,0.31811 31.40067,-9.36997 -0.78053,-5.73353 -20.03718,1.81925 -28.4856,-1.84692 -5.07303,-4.65065 -19.26639,-15.18526 -19.47013,-18.28829 -0.41295,-6.28947 -4.98918,-12.73748 -11.75535,-12.56667 z" /></g><g
     inkscape:groupmode="layer"
     id="g12854"
     inkscape:label="swim-down"
     style="display:none"><path
       style="color:#000000;fill:#ffffff;stroke-linecap:square;-inkscape-stroke:none"
       d="m 233.24815,69.772264 c -1.78333,2.103188 -4.45417,5.061551 -7.67003,8.026564 -5.98627,5.519334 -13.83415,10.580001 -19.86132,10.677734 -6.25632,0.101454 -14.65885,-4.968415 -21.13282,-10.568359 -6.47396,-5.599944 -10.99414,-11.242187 -10.99414,-11.242187 l -3.44922,-4.31836 -3.27148,4.457032 c 0,0 -4.02395,5.471028 -9.92578,10.976562 -5.90183,5.505534 -13.65155,10.564576 -19.63867,10.695312 -6.29555,0.137477 -14.7951,-4.932777 -21.35352,-10.546874 -6.55842,-5.614098 -11.15039,-11.283204 -11.15039,-11.283204 l -3.47851,-4.302734 -3.244145,4.482422 c 0,0 -3.952159,5.447681 -9.769531,10.939453 -5.817373,5.491772 -13.471017,10.547629 -19.417969,10.710937 -6.33463,0.17396 -14.929386,-4.897071 -21.572266,-10.52539 -3.934036,-3.333195 -7.174635,-6.689406 -9.163374,-8.872346 -1.642555,2.407287 -3.197986,4.879086 -4.66181,7.410913 2.125072,2.24473 4.932775,5.024614 8.350575,7.920417 7.302161,6.186909 16.843703,12.815877 27.279297,12.529297 9.940629,-0.27298 18.537181,-6.916376 24.998047,-13.015625 3.108825,-2.934823 5.653936,-5.801309 7.537106,-8.041016 2.15379,2.32262 5.19331,5.402171 8.78711,8.478516 7.21608,6.177055 16.66045,12.806843 27.04492,12.580078 9.99068,-0.218161 18.68157,-6.861415 25.22852,-12.96875 3.16454,-2.952041 5.76742,-5.842433 7.68164,-8.091797 2.12309,2.313229 5.10585,5.368746 8.64453,8.429688 7.13,6.167404 16.47711,12.798427 26.81055,12.630859 10.04088,-0.162816 18.82986,-6.802347 25.46289,-12.917968 2.58378,-2.382239 4.80198,-4.728199 6.58283,-6.729442 -1.45865,-2.569517 -3.0112,-5.0783 -4.65304,-7.521732 z"
       id="path12848"
       class="UnoptimicedTransforms"
       inkscape:path-effect="#path-effect12858"
       inkscape:original-d="m 101.32227,62.34375 -3.244145,4.482422 c 0,0 -3.952159,5.447681 -9.769531,10.939453 C 82.491221,83.257397 74.837577,88.313253 68.890625,88.476562 62.555995,88.650522 53.961239,83.579491 47.318359,77.951172 40.675479,72.322853 36.009766,66.628906 36.009766,66.628906 L 32.873047,62.792969 8.6875,89.888672 5.8671875,93.046875 12.183594,98.685547 15.003906,95.527344 32.726562,75.671875 c 2.197567,2.367687 5.271083,5.479588 9.117188,8.738281 7.302161,6.186909 16.843703,12.815877 27.279297,12.529297 9.940629,-0.27298 18.537181,-6.916376 24.998047,-13.015625 3.108825,-2.934823 5.653933,-5.801309 7.537106,-8.041016 2.15379,2.322619 5.19331,5.402171 8.78711,8.478516 7.21608,6.177055 16.66045,12.806843 27.04492,12.580078 9.99068,-0.218161 18.68157,-6.861415 25.22852,-12.96875 3.16454,-2.952041 5.76742,-5.842433 7.68164,-8.091797 2.12309,2.313229 5.10585,5.368746 8.64453,8.429688 7.13,6.167404 16.47711,12.798427 26.81055,12.630859 10.04088,-0.162816 18.82986,-6.802347 25.46289,-12.917969 3.21173,-2.961205 5.85858,-5.866356 7.80273,-8.123046 l 16.69141,19.55664 2.74805,3.21875 6.43945,-5.496094 -2.74805,-3.21875 -23.42187,-27.441406 -3.16797,4.263672 c 0,0 -4.0977,5.496291 -10.08399,11.015625 -5.98628,5.519334 -13.83415,10.580001 -19.86132,10.677734 -6.25632,0.101453 -14.65885,-4.968415 -21.13282,-10.568359 -6.47396,-5.599944 -10.99414,-11.242187 -10.99414,-11.242187 l -3.44922,-4.31836 -3.27148,4.457031 c 0,0 -4.02395,5.471029 -9.92578,10.976563 -5.90183,5.505534 -13.65155,10.564575 -19.63867,10.695312 -6.29555,0.137476 -14.7951,-4.932777 -21.35352,-10.546875 -6.55842,-5.614097 -11.15039,-11.283203 -11.15039,-11.283203 z"
       inkscape:label="wave" /><path
       style="color:#000000;display:none;fill:#ff0000;-inkscape-stroke:none;filter:url(#selectable_hidder_filter)"
       d="m 135.4668,-7.6523437 c -78.891908,0 -143.1191437,64.2272357 -143.1191437,143.1191437 0,78.8919 64.2272357,143.11914 143.1191437,143.11914 78.8919,0 143.11914,-64.22724 143.11914,-143.11914 0,-78.891908 -64.22724,-143.1191437 -143.11914,-143.1191437 z m 0,25.4003907 c 65.16474,0 117.71875,52.55401 117.71875,117.718753 0,65.16474 -52.55401,117.71875 -117.71875,117.71875 -65.164743,0 -117.718753,-52.55401 -117.718753,-117.71875 0,-65.164743 52.55401,-117.718753 117.718753,-117.718753 z"
       id="circle12918"
       class="UnoptimicedTransforms" /><path
       id="path12850"
       style="display:inline;fill:#ffffff;stroke:none;stroke-width:22.0051;stroke-dasharray:none"
       d="m 128.81179,143.86884 8.55581,97.8298 12.3334,-97.8298 h 22.25859 l -32.19291,-40.72863 -33.86712,40.72863 z"
       sodipodi:nodetypes="ccccccc"
       class="UnoptimicedTransforms"
       inkscape:label="arrow"
       transform="matrix(1,0,0,-1,0,344.83885)" /><path
       id="path12852"
       style="display:inline;opacity:1;fill:#ffffff;stroke:none;stroke-width:8.46667;stroke-linecap:square;stroke-linejoin:miter;stroke-dasharray:none"
       d="m 131.0665,126.59565 c -6.46978,0.13147 -12.75756,0.4321 -13.80478,0.56451 -2.97157,0.37571 -4.8131,3.42208 -1.89063,4.07812 3.11885,0.70012 9.27069,1.91886 15.04447,2.79984 z m -2.16002,24.69644 c -8.98528,2.6763 -9.05101,6.92861 -9.05101,6.92861 -8.78906,0.21437 -20.382325,11.26866 -29.103517,15.5918 -2.792194,1.3841 -7.973556,-0.0799 -10.837891,0.1582 -20.537708,1.7069 -35.03489,6.1518 -38.115234,7.59571 -9.001021,4.21922 -5.219421,6.75885 -2.671875,7.73437 3.662656,1.40253 26.160936,-1.40151 43.441406,-1.32031 2.139775,0.0101 6.665543,-0.88829 8.455079,-0.92969 11.292792,-0.26153 28.543462,-8.42236 35.816112,-12.12646 z m 21.98554,25.28346 c 10.83357,-1.39071 23.6436,-6.02775 31.0865,-9.97008 3.58346,7.10941 17.11977,14.485 23.36132,17.29492 3.42725,1.54293 31.08994,0.31894 31.40235,-9.36914 -0.78053,-5.73353 -20.03791,1.81851 -28.48633,-1.84766 -5.07303,-4.65065 -19.26696,-15.18408 -19.4707,-18.28711 -0.41295,-6.28947 -4.98774,-12.73721 -11.75391,-12.5664 -0.9666,0.0244 -1.97908,0.18371 -3.0293,0.49804 -5.2384,1.56786 -16.60543,3.54514 -26.75492,5.3311 z m -4.89489,-38.83199 c 5.40542,2.67705 12.22885,5.41536 14.89154,6.08456 2.09441,-0.27836 11.05989,-2.12352 13.22071,-2.88476 -6.53416,-5.57526 -25.53273,-13.36063 -28.4961,-13.98438 -0.27138,-0.0571 -0.60567,-0.1076 -0.99473,-0.15195 z m 59.64935,-7.65176 c -8.62199,-1.5e-4 -15.61142,6.67459 -15.61132,14.9082 1.9e-4,8.23341 6.98954,14.90835 15.61132,14.9082 8.62158,-1.2e-4 15.61114,-6.67498 15.61133,-14.9082 1e-4,-8.23342 -6.98954,-14.90808 -15.61133,-14.9082 z m -157.683589,4.74023 c -2.834981,-0.0542 -5.76798,3.53557 2.83789,10.02735 3.169725,2.39105 15.830024,10.24095 25.558594,16.26367 2.179994,1.34958 2.867227,0.70449 5.296875,1.45312 10.106851,3.11413 18.83594,3.05274 18.83594,3.05274 0,0 8.11248,-6.28492 15.14453,-8.39453 4.77879,-1.43363 -19.342192,-6.72904 -28.031251,-7.02735 -6.296038,-0.21615 -6.951254,-0.16078 -9.22461,-2.07617 C 69.230078,142.996 58.727525,135.57808 47.962891,134.83203 Z"
       inkscape:label="person-swimming"
       sodipodi:nodetypes="ssscccssscscscssscssccssscscsscccscsccss"
       class="UnoptimicedTransforms"
       inkscape:path-effect="#path-effect13750"
       inkscape:original-d="m 137.45242,126.53374 c -8.04352,-0.0269 -18.79117,0.45048 -20.18998,0.62735 -2.97157,0.37571 -4.81383,3.42124 -1.89136,4.07728 5.40402,1.2131 19.91471,3.98229 25.78603,3.85454 5.06963,3.20232 16.15512,7.83691 19.73212,8.7359 2.09441,-0.27837 11.05958,-2.12437 13.22039,-2.88561 -6.53415,-5.57526 -25.5336,-13.36093 -28.49697,-13.98468 -1.40683,-0.29612 -4.50408,-0.41256 -8.16023,-0.42478 z m 68.19429,3.55793 c -8.62199,-1.5e-4 -15.61155,6.67452 -15.61145,14.90813 1.9e-4,8.23341 6.98967,14.90777 15.61145,14.90762 8.62158,-1.2e-4 15.61074,-6.6744 15.61093,-14.90762 1e-4,-8.23342 -6.98914,-14.90801 -15.61093,-14.90813 z m -157.684695,4.73945 c -2.834981,-0.0542 -5.767009,3.53635 2.838861,10.02812 3.169725,2.39105 15.830593,10.2414 25.559163,16.26412 2.179994,1.34958 2.86667,0.704 5.296318,1.45263 10.106851,3.11413 18.835023,3.05356 18.835023,3.05356 0,0 8.11275,-6.28471 15.1448,-8.39432 4.77879,-1.43363 -19.34162,-6.72899 -28.030679,-7.0273 -6.296038,-0.21615 -6.95054,-0.16217 -9.223896,-2.07756 -9.150781,-5.13486 -19.654956,-12.5532 -30.41959,-13.29925 z m 129.068355,6.99833 c -0.9666,0.0244 -1.97802,0.18383 -3.02824,0.49816 -8.69147,2.60136 -34.25494,6.33081 -43.13535,8.44238 -10.93674,2.60053 -11.01122,7.45019 -11.01122,7.45019 -8.78906,0.21437 -20.382442,11.26867 -29.103634,15.59181 -2.792194,1.3841 -7.97428,-0.0784 -10.838615,0.15968 -20.537709,1.7069 -35.033608,6.15098 -38.113952,7.59489 -9.001021,4.21922 -5.219735,6.75941 -2.672189,7.73493 3.662656,1.40253 26.161323,-1.40154 43.441793,-1.32034 2.139775,0.0101 6.665245,-0.88825 8.454781,-0.92965 14.623706,-0.33867 39.238936,-13.9237 39.238936,-13.9237 0,0 1.6681,1.54704 8.87026,3.26388 11.26547,2.68545 32.3711,-4.23768 42.84596,-9.78597 3.58346,7.10941 17.12033,14.48567 23.36188,17.29559 3.42725,1.54293 31.08826,0.31811 31.40067,-9.36997 -0.78053,-5.73353 -20.03718,1.81925 -28.4856,-1.84692 -5.07303,-4.65065 -19.26639,-15.18526 -19.47013,-18.28829 -0.41295,-6.28947 -4.98918,-12.73748 -11.75535,-12.56667 z" /><path
       id="path13734"
       style="color:#000000;fill:#ffffff;stroke-width:8.46667;filter:url(#selectable_hidder_filter)"
       d="m 141.56862,102.61027 -8.41809,0.1602 -8.21914,93.96687 H 96.873156 l 42.976704,51.68367 40.85125,-51.68367 h -27.26758 z"
       class="UnoptimicedTransforms" /></g><g
     inkscape:groupmode="layer"
     id="g858"
     inkscape:label="surge"
     style="display:none"><path
       style="color:#000000;fill:#ffffff;fill-rule:nonzero;stroke:#ffffff;stroke-width:0.264583;stroke-linecap:square;-inkscape-stroke:none"
       d="m 233.24815,69.772264 c -1.78333,2.103188 -4.45417,5.061551 -7.67003,8.026564 -5.98627,5.519334 -13.83415,10.580001 -19.86132,10.677734 -6.25632,0.101454 -14.65885,-4.968415 -21.13282,-10.568359 -6.47396,-5.599944 -10.99414,-11.242187 -10.99414,-11.242187 l -3.44922,-4.31836 -3.27148,4.457032 c 0,0 -4.02395,5.471028 -9.92578,10.976562 -5.90183,5.505534 -13.65155,10.564576 -19.63867,10.695312 -6.29555,0.137477 -14.7951,-4.932777 -21.35352,-10.546874 -6.55842,-5.614098 -11.15039,-11.283204 -11.15039,-11.283204 l -3.47851,-4.302734 -3.244145,4.482422 c 0,0 -3.952159,5.447681 -9.769531,10.939453 -5.817373,5.491772 -13.471017,10.547629 -19.417969,10.710937 -6.33463,0.17396 -14.929386,-4.897071 -21.572266,-10.52539 -3.934036,-3.333195 -7.174635,-6.689406 -9.163374,-8.872346 -1.642555,2.407287 -3.197986,4.879086 -4.66181,7.410913 2.125072,2.24473 4.932775,5.024614 8.350575,7.920417 7.302161,6.186909 16.843703,12.815877 27.279297,12.529297 9.940629,-0.27298 18.537181,-6.916376 24.998047,-13.015625 3.108825,-2.934823 5.653936,-5.801309 7.537106,-8.041016 2.15379,2.32262 5.19331,5.402171 8.78711,8.478516 7.21608,6.177055 16.66045,12.806843 27.04492,12.580078 9.99068,-0.218161 18.68157,-6.861415 25.22852,-12.96875 3.16454,-2.952041 5.76742,-5.842433 7.68164,-8.091797 2.12309,2.313229 5.10585,5.368746 8.64453,8.429688 7.13,6.167404 16.47711,12.798427 26.81055,12.630859 10.04088,-0.162816 18.82986,-6.802347 25.46289,-12.917968 2.58378,-2.382239 4.80198,-4.728199 6.58283,-6.729442 -1.45865,-2.569517 -3.0112,-5.0783 -4.65304,-7.521732 z"
       id="path848"
       class="UnoptimicedTransforms"
       inkscape:path-effect="#path-effect862"
       inkscape:original-d="m 101.32227,62.34375 -3.244145,4.482422 c 0,0 -3.952159,5.447681 -9.769531,10.939453 C 82.491221,83.257397 74.837577,88.313253 68.890625,88.476562 62.555995,88.650522 53.961239,83.579491 47.318359,77.951172 40.675479,72.322853 36.009766,66.628906 36.009766,66.628906 L 32.873047,62.792969 8.6875,89.888672 5.8671875,93.046875 12.183594,98.685547 15.003906,95.527344 32.726562,75.671875 c 2.197567,2.367687 5.271083,5.479588 9.117188,8.738281 7.302161,6.186909 16.843703,12.815877 27.279297,12.529297 9.940629,-0.27298 18.537181,-6.916376 24.998047,-13.015625 3.108825,-2.934823 5.653933,-5.801309 7.537106,-8.041016 2.15379,2.322619 5.19331,5.402171 8.78711,8.478516 7.21608,6.177055 16.66045,12.806843 27.04492,12.580078 9.99068,-0.218161 18.68157,-6.861415 25.22852,-12.96875 3.16454,-2.952041 5.76742,-5.842433 7.68164,-8.091797 2.12309,2.313229 5.10585,5.368746 8.64453,8.429688 7.13,6.167404 16.47711,12.798427 26.81055,12.630859 10.04088,-0.162816 18.82986,-6.802347 25.46289,-12.917969 3.21173,-2.961205 5.85858,-5.866356 7.80273,-8.123046 l 16.69141,19.55664 2.74805,3.21875 6.43945,-5.496094 -2.74805,-3.21875 -23.42187,-27.441406 -3.16797,4.263672 c 0,0 -4.0977,5.496291 -10.08399,11.015625 -5.98628,5.519334 -13.83415,10.580001 -19.86132,10.677734 -6.25632,0.101453 -14.65885,-4.968415 -21.13282,-10.568359 -6.47396,-5.599944 -10.99414,-11.242187 -10.99414,-11.242187 l -3.44922,-4.31836 -3.27148,4.457031 c 0,0 -4.02395,5.471029 -9.92578,10.976563 -5.90183,5.505534 -13.65155,10.564575 -19.63867,10.695312 -6.29555,0.137476 -14.7951,-4.932777 -21.35352,-10.546875 -6.55842,-5.614097 -11.15039,-11.283203 -11.15039,-11.283203 z"
       inkscape:label="wave"
       inkscape:linked-fill="path10123" /><path
       id="path1955"
       style="display:inline;opacity:1;fill:#ffffff;stroke:none;stroke-width:10.2948;stroke-linecap:square;stroke-linejoin:miter;stroke-dasharray:none"
       class="UnoptimicedTransforms"
       inkscape:label="person-surging"
       d="m 253.16904,136.78028 c -0.63531,0.0971 -1.17698,0.18871 -1.92081,0.29197 -4.54119,0.60195 -13.63543,1.82953 -15.3262,2.11305 -4.51295,0.75678 -7.11467,3.10221 -3.72432,4.43229 1.46089,0.57315 2.86709,0.12335 5.48184,0.44493 1.70864,-0.6948 3.69856,-1.35442 6.08076,-1.93838 1.99748,-0.48966 5.39733,-1.14276 9.32036,-1.86087 0.0461,-1.15675 0.0757,-2.31772 0.0884,-3.48299 z m -0.13953,4.80281 c -3.78936,0.69545 -7.07364,1.32685 -8.96327,1.79007 -15.10651,3.70311 -13.41057,10.08699 -26.98802,10.76988 -19.12965,0.96214 -25.34004,4.59893 -30.01057,4.19613 -14.16212,-1.2214 -38.89021,-0.94328 -42.63564,0.81235 -10.9445,5.13025 -5.72642,7.28533 -2.50011,8.05533 4.00359,0.95555 38.83205,5.51994 43.78906,6.03684 6.017,0.62743 26.79259,0.11527 39.08289,-1.85674 0.33329,-1.05347 1.11185,-1.8925 2.2443,-2.82877 1.16355,-0.96196 2.75439,-2.00203 4.85655,-3.18688 l 0.13075,-0.0739 0.14211,-0.0429 c 0,0 7.82348,-2.27805 18.07538,-3.49643 1.48217,-6.53279 2.42579,-13.27367 2.77657,-20.17499 z m -30.56971,4.177 c -19.27159,-0.12111 -22.23794,6.14374 -38.53149,2.53422 -12.31415,-2.72793 -34.75799,-0.31409 -41.4414,1.64434 -6.68343,1.9584 -3.24593,7.13221 2.60346,7.31532 0.3725,0.0122 0.7875,0.0387 1.18339,0.0589 1.17218,-0.20383 2.58837,-0.34176 4.30258,-0.48369 3.11064,-0.25754 7.01717,-0.41886 11.24737,-0.48731 8.46043,-0.13691 18.20025,0.0982 25.35349,0.7152 1.95629,0.1687 4.63383,-0.57514 9.20047,-1.5627 4.56663,-0.9876 10.99585,-2.15119 20.63492,-2.63601 6.58507,-0.3312 9.1406,-1.914 12.26385,-4.03231 1.12726,-0.76455 2.32445,-1.60357 3.75274,-2.45257 -4.01187,-0.4082 -7.50272,-0.59412 -10.56938,-0.6134 z m 27.47688,17.3359 c -9.88496,1.21712 -17.39946,3.39514 -17.39946,3.39514 -8.24815,4.64894 -8.09907,6.89847 -3.15019,8.09821 2.02428,0.49074 9.20501,0.26873 17.1974,-0.0811 1.30203,-3.72166 2.42311,-7.52868 3.35225,-11.41222 z"
       sodipodi:nodetypes="ccsscsccccsscsscscccccsssccsssssscsccscc" /><path
       style="color:#000000;fill:#ff0000;-inkscape-stroke:none;filter:url(#selectable_hidder_filter)"
       d="m 135.4668,-7.6523437 c -78.891908,0 -143.1191437,64.2272357 -143.1191437,143.1191437 0,78.8919 64.2272357,143.11914 143.1191437,143.11914 78.8919,0 143.11914,-64.22724 143.11914,-143.11914 0,-78.891908 -64.22724,-143.1191437 -143.11914,-143.1191437 z m 0,25.4003907 c 65.16474,0 117.71875,52.55401 117.71875,117.718753 0,65.16474 -52.55401,117.71875 -117.71875,117.71875 -65.164743,0 -117.718753,-52.55401 -117.718753,-117.71875 0,-65.164743 52.55401,-117.718753 117.718753,-117.718753 z"
       id="circle868"
       class="UnoptimicedTransforms"
       inkscape:label="waves" /><path
       style="display:none;opacity:1;fill:#ff5555;stroke:none;stroke-width:8.46667;stroke-linecap:square;stroke-linejoin:miter;stroke-dasharray:none"
       transform="translate(24.768165,-17.093525)"
       d="m 177.03037,141.82945 c -0.9666,0.0244 -1.97802,0.18383 -3.02824,0.49816 -8.69147,2.60136 -41.43118,7.49962 -49.30216,9.42907 -12.42397,3.04554 -11.02811,8.29732 -22.19454,8.85895 -15.732702,0.7913 -20.840395,3.78129 -24.681573,3.45002 -11.64728,-1.00451 -31.984823,-0.77488 -35.065167,0.66903 -9.001021,4.21922 -4.708917,5.99162 -2.055508,6.6249 3.292647,0.78585 31.936442,4.54 36.013198,4.96511 5.714424,0.59587 27.61488,-0.0577 36.26383,-2.3671 3.7669,-1.00583 9.14074,0.93178 14.09208,0.93034 17.00519,-0.005 38.58284,-1.68695 54.90661,-8.28222 4.3203,-1.74553 7.37266,-7.58447 6.80682,-12.20959 -0.69655,-5.69349 -4.98918,-12.73748 -11.75535,-12.56667 z"
       id="path1596"
       class="UnoptimicedTransforms"
       sodipodi:nodetypes="sssssssssssas"
       inkscape:original-d="m 177.03037,141.82945 c -0.9666,0.0244 -1.97802,0.18383 -3.02824,0.49816 -8.69147,2.60136 -41.43118,7.49962 -49.30216,9.42907 -12.42397,3.04554 -11.02811,8.29732 -22.19454,8.85895 -15.732702,0.7913 -20.840395,3.78129 -24.681573,3.45002 -11.64728,-1.00451 -31.984823,-0.77488 -35.065167,0.66903 -9.001021,4.21922 -4.708917,5.99162 -2.055508,6.6249 3.292647,0.78585 31.936442,4.54 36.013198,4.96511 5.714424,0.59587 27.61488,-0.0577 36.26383,-2.3671 3.7669,-1.00583 9.14074,0.93178 14.09208,0.93034 17.00519,-0.005 38.58284,-1.68695 54.90661,-8.28222 4.3203,-1.74553 7.37266,-7.58447 6.80682,-12.20959 -0.69655,-5.69349 -4.98918,-12.73748 -11.75535,-12.56667 z"
       inkscape:path-effect="#path-effect1600"
       inkscape:label="body-original" /><g
       id="g2638"
       transform="matrix(1.6534223,0,0,0.76838298,-95.212339,36.529497)"
       inkscape:label="streaks"
       class="UnoptimicedTransforms"
       inkscape:path-effect="#path-effect9871"><path
         style="fill:#ffffff;fill-rule:nonzero;stroke:none;stroke-width:1.70009;stroke-linecap:square;stroke-dasharray:none"
         d="m 68.695874,112.84939 c 4.810339,3.8233 11.542805,9.12026 18.359261,14.3071 l 0.03071,0.0229 c 9.055486,5.87554 19.744202,11.77228 30.739982,15.58163 5.57019,1.93196 10.61799,2.99767 15.06227,3.46202 4.19442,0.43825 7.00016,0.26435 7.00016,0.26435 0,0 -2.8103,-0.0709 -6.93519,-0.74731 -4.45869,-0.73123 -9.21426,-1.96901 -14.80712,-3.9043 -10.89948,-3.77599 -21.510502,-9.62949 -30.527353,-15.47995 -6.916814,-5.26245 -13.91955,-10.41193 -18.897116,-14.03496 -0.0087,0.17609 -0.01721,0.35228 -0.02561,0.52855 z"
         id="path2537"
         inkscape:original-d="m 61.714467,107.25938 c 0,0 42.308883,38.94658 78.173363,39.22677"
         inkscape:path-effect="#path-effect2547" /><path
         style="fill:#ffffff;fill-rule:nonzero;stroke:none;stroke-width:1.70009;stroke-linecap:square;stroke-dasharray:none"
         d="m 68.495776,139.67482 c 4.892833,1.71742 11.569103,4.01678 18.285306,6.19233 l 0.02008,0.005 c 9.174401,2.54612 19.971966,5.10795 31.023486,6.77916 5.68234,0.85962 10.79565,1.26701 15.15205,1.4031 4.14905,0.12963 6.91156,-0.003 6.91156,-0.003 0,0 -2.76369,-0.11225 -6.88203,-0.4855 -4.53032,-0.41058 -9.1784,-0.99823 -15.0351,-1.88352 -11.00514,-1.66419 -21.758801,-4.21437 -30.908908,-6.75374 -6.780438,-2.19593 -13.601647,-4.26598 -18.582044,-5.74565 0.0051,0.16383 0.01028,0.32759 0.0156,0.49128 z"
         id="path2575"
         sodipodi:nodetypes="cc"
         inkscape:original-d="m 60.873893,136.95965 c 0,0 43.149457,16.81147 79.013937,17.09167"
         inkscape:path-effect="#path-effect2579" /><path
         style="fill:#ffffff;fill-rule:nonzero;stroke:none;stroke-width:1.70009;stroke-linecap:square;stroke-dasharray:none"
         d="m 61.731852,210.4166 c -0.01139,0.009 -0.01715,0.0139 -0.01715,0.0139 0,0 0.0059,-0.004 0.01747,-0.0125 -1.07e-4,-4.7e-4 -2.14e-4,-9.3e-4 -3.2e-4,-0.001 z m 14.639225,-10.65793 c 3.534248,-2.61186 7.404148,-5.50109 11.24752,-8.4252 9.016851,-5.85048 19.627873,-11.70397 30.527353,-15.47996 5.59286,-1.9353 10.34843,-3.17307 14.80712,-3.9043 4.12489,-0.67649 6.93519,-0.74476 6.93519,-0.74476 0,0 -2.80574,-0.17644 -7.00016,0.26181 -4.44428,0.46435 -9.49208,1.53004 -15.06227,3.46202 -10.99578,3.80935 -21.684496,9.70608 -30.739982,15.58162 l -0.03071,0.0229 c -3.754979,2.85727 -7.484471,5.74796 -10.881203,8.40731 0.06535,0.27334 0.131061,0.5462 0.197145,0.81858 z"
         id="path2581"
         inkscape:original-d="m 61.714467,210.42999 c 0,0 42.308883,-38.94658 78.173363,-39.22677"
         inkscape:path-effect="#path-effect2587" /><path
         style="fill:#ffffff;fill-rule:nonzero;stroke:none;stroke-width:1.70009;stroke-linecap:square;stroke-dasharray:none"
         d="m 71.971258,177.4614 c 4.454201,-1.34164 9.785066,-2.98294 15.090964,-4.70134 l 0.02008,-0.005 c 9.146062,-2.53765 19.891166,-5.08558 30.888826,-6.74864 5.8567,-0.88529 10.50478,-1.47295 15.0351,-1.88353 4.11834,-0.37325 6.88203,-0.4855 6.88203,-0.4855 0,0 -2.76251,-0.13164 -6.91156,-0.003 -4.3564,0.13611 -9.46971,0.54348 -15.15205,1.40312 -11.05152,1.67119 -21.849083,4.23303 -31.023486,6.77914 l -0.02008,0.005 c -5.274909,1.70867 -10.525186,3.49372 -14.906139,5.01323 0.0319,0.20888 0.06401,0.41757 0.09632,0.62605 z"
         id="path2583"
         sodipodi:nodetypes="cc"
         inkscape:original-d="m 60.873893,180.72972 c 0,0 43.149457,-16.81147 79.013937,-17.09166"
         inkscape:path-effect="#path-effect2591" /></g><g
       id="g7438"
       transform="translate(-27.133964)"
       inkscape:label="bubbles"
       style="display:none"><circle
         style="opacity:1;fill:url(#radialGradient3501);fill-opacity:1;stroke:none;stroke-width:0.448614;stroke-linecap:square;stroke-dasharray:none"
         id="path2692"
         cx="145.38899"
         cy="162.92204"
         r="8.3548079" /><use
         x="0"
         y="0"
         xlink:href="#path2692"
         id="use5743"
         transform="matrix(1.1064401,0,0,1.1064401,-41.86916,-9.2012436)" /><use
         x="0"
         y="0"
         xlink:href="#path2692"
         id="use5745"
         transform="matrix(1.1116485,0,0,1.1116485,-39.419661,-34.470371)" /><use
         x="0"
         y="0"
         xlink:href="#path2692"
         id="use5751"
         transform="matrix(1.5954584,0,0,1.5954584,-138.86765,-117.73379)" /><use
         x="0"
         y="0"
         xlink:href="#path2692"
         id="use5753"
         transform="matrix(2.0038366,0,0,2.0038366,-243.13571,-136.16647)" /><use
         x="0"
         y="0"
         xlink:href="#path2692"
         id="use5757"
         transform="matrix(2.0048361,0,0,2.0048361,-241.80099,-197.01072)" /><use
         x="0"
         y="0"
         xlink:href="#path2692"
         id="use5759"
         transform="matrix(1.6200167,0,0,1.6200167,-149.09831,-89.667449)" /><use
         x="0"
         y="0"
         xlink:href="#path2692"
         id="use5765"
         transform="matrix(1.4428691,0,0,1.4428691,-147.76356,-75.359875)" /></g><g
       id="g7646"
       transform="translate(-27.133964)"
       inkscape:label="bubbles"
       class="UnoptimicedTransforms"><path
         id="circle7630"
         style="opacity:1;fill:url(#radialGradient3501);stroke-width:0.448614;stroke-linecap:square"
         d="m 153.7438,162.92204 a 8.3548079,8.3548079 0 0 1 -8.35481,8.35481 8.3548079,8.3548079 0 0 1 -8.35481,-8.35481 8.3548079,8.3548079 0 0 1 8.35481,-8.35481 8.3548079,8.3548079 0 0 1 8.35481,8.35481 z"
         class="UnoptimicedTransforms" /><path
         id="use7632"
         style="fill:url(#radialGradient7689);stroke-width:0.496365;stroke-linecap:square"
         d="m 128.23914,171.06224 a 9.2440948,9.2440948 0 0 1 -9.24409,9.2441 9.2440948,9.2440948 0 0 1 -9.2441,-9.2441 9.2440948,9.2440948 0 0 1 9.2441,-9.24409 9.2440948,9.2440948 0 0 1 9.24409,9.24409 z" /><path
         id="use7634"
         style="fill:url(#radialGradient7693);stroke-width:0.498701;stroke-linecap:square"
         d="m 131.48941,146.64168 a 9.2876101,9.2876101 0 0 1 -9.28761,9.28761 9.2876101,9.2876101 0 0 1 -9.28761,-9.28761 9.2876101,9.2876101 0 0 1 9.28761,-9.28761 9.2876101,9.2876101 0 0 1 9.28761,9.28761 z"
         class="UnoptimicedTransforms" /><path
         id="use7636"
         style="fill:url(#radialGradient7697);stroke-width:0.715745;stroke-linecap:square"
         d="M 106.42418,142.20155 A 13.329748,13.329748 0 0 1 93.094437,155.5313 13.329748,13.329748 0 0 1 79.764688,142.20155 13.329748,13.329748 0 0 1 93.094437,128.87181 13.329748,13.329748 0 0 1 106.42418,142.20155 Z" /><path
         id="use7638"
         style="fill:url(#radialGradient7701);stroke-width:0.898949;stroke-linecap:square"
         d="m 51.267891,173.9067 c 2.953246,8.59197 6.870142,16.72976 11.623063,24.28533 1.323257,-2.42066 2.027821,-5.13081 2.051038,-7.88944 -0.02995,-8.03963 -5.770511,-14.92284 -13.674101,-16.39589 z"
         sodipodi:nodetypes="cccc" /><path
         id="use7640"
         style="fill:url(#radialGradient7705);stroke-width:0.899398;stroke-linecap:square"
         d="m 49.679874,112.87115 a 16.750021,16.750021 0 0 0 -2.703194,0.30489 c -1.374808,7.21493 -2.094446,14.66647 -2.094446,22.29062 0,3.45899 0.149077,6.88203 0.43925,10.26398 a 16.750021,16.750021 0 0 0 4.35839,0.64079 16.750021,16.750021 0 0 0 16.750399,-16.7504 16.750021,16.750021 0 0 0 -16.750399,-16.74988 z" /><path
         id="use7642"
         style="fill:url(#radialGradient7709);stroke-width:0.726762;stroke-linecap:square"
         d="M 99.969216,174.26898 A 13.534928,13.534928 0 0 1 86.434288,187.80391 13.534928,13.534928 0 0 1 72.89936,174.26898 13.534928,13.534928 0 0 1 86.434288,160.73405 13.534928,13.534928 0 0 1 99.969216,174.26898 Z" /><path
         id="use7644"
         style="fill:url(#radialGradient7713);stroke-width:0.647291;stroke-linecap:square"
         d="M 74.06862,159.7153 A 12.054894,12.054894 0 0 1 62.013725,171.7702 12.054894,12.054894 0 0 1 49.958831,159.7153 12.054894,12.054894 0 0 1 62.013725,147.66041 12.054894,12.054894 0 0 1 74.06862,159.7153 Z" /></g><path
       style="color:#000000;display:inline;fill:#ff0000;-inkscape-stroke:none;filter:url(#selectable_hidder_filter)"
       d="m 135.4668,-7.6523437 c -78.891908,0 -143.1191437,64.2272357 -143.1191437,143.1191437 0,78.8919 64.2272357,143.11914 143.1191437,143.11914 78.8919,0 143.11914,-64.22724 143.11914,-143.11914 0,-78.891908 -64.22724,-143.1191437 -143.11914,-143.1191437 z m 0,25.4003907 c 65.16474,0 117.71875,52.55401 117.71875,117.718753 0,65.16474 -52.55401,117.71875 -117.71875,117.71875 -65.164743,0 -117.718753,-52.55401 -117.718753,-117.71875 0,-65.164743 52.55401,-117.718753 117.718753,-117.718753 z"
       id="circle9302"
       class="UnoptimicedTransforms" /></g><g
     inkscape:groupmode="layer"
     id="layer3"
     inkscape:label="jump"
     style="display:none"><path
       id="rect1117"
       style="fill:#ffffff;stroke-width:47.7898"
       d="m 41.72045,206.78686 c 21.476167,28.22206 55.42781,46.39871 93.74621,46.39872 38.31845,-10e-6 72.27057,-18.17661 93.74674,-46.39872 z" /><path
       id="path4079"
       style="display:inline;opacity:1;fill:#ffffff;stroke:none;stroke-width:8.46667;stroke-linejoin:miter;stroke-miterlimit:4;stroke-dasharray:none;paint-order:normal"
       inkscape:label="foot"
       d="m 135.46666,17.74827 c -4.32626,0 -8.59477,0.238297 -12.79818,0.689881 -8.49375,12.72519 -19.37119,25.501703 -33.83256,33.699751 -11.332798,6.424484 -29.778467,10.014668 -34.399967,31.182076 -3.534022,16.186525 5.306344,24.832042 22.10356,34.913632 12.202403,7.3238 20.964546,25.58406 29.084017,43.2356 2.49157,-6.96394 4.7978,-14.64266 6.58719,-22.87354 3.1651,-14.55892 3.49553,-25.79131 3.06286,-33.31838 -0.20875,-3.63148 -0.57734,-6.236751 -0.90072,-8.060486 H 82.306603 L 130.50986,39.2498 l 25.7545,32.583024 c 9.46278,-13.9416 23.56494,-28.54274 35.16478,-40.020813 C 174.79774,22.838742 155.74336,17.74827 135.46666,17.74827 Z m 10.48464,79.468534 c -0.40179,9.167236 -2.487,36.286136 -14.15418,61.077926 -4.46709,9.49225 -10.13579,17.83716 -15.76544,24.79848 4.2873,7.9327 8.73114,14.30039 13.75109,17.34933 1.74814,1.11552 25.1618,1.5218 39.78931,0.20051 11.14317,-1.00655 19.88604,-3.19018 22.70145,-14.44822 0.2892,-13.17163 -20.34564,-10.62286 -25.86715,-14.69677 -4.76777,-3.51778 -22.97637,-39.56132 -19.04845,-74.281256 z"
       sodipodi:nodetypes="scssscsscccccscsccscscc" /><path
       id="path4038"
       style="display:inline;fill:#ffffff;stroke:none;stroke-width:25.4;stroke-dasharray:none"
       d="m 117.78045,92.983994 c 0,0 5.06294,16.628336 -1.43352,46.511046 -8.04525,37.00678 -26.274873,63.2798 -26.274873,63.2798 0,0 24.615073,-18.06412 37.894713,-46.28232 13.61,-28.92014 13.92565,-63.508526 13.92565,-63.508526 h 25.69262 L 130.42545,45.971811 91.333359,92.983994 Z"
       sodipodi:nodetypes="cscsccccc" /></g><g
     inkscape:groupmode="layer"
     id="g1588"
     inkscape:label="crouch"
     style="display:inline"><path
       id="path1582"
       style="fill:#ffffff;stroke-width:47.7898"
       d="m 41.72045,206.78686 c 21.476167,28.22206 55.42781,46.39871 93.74621,46.39872 38.31845,-10e-6 72.27057,-18.17661 93.74674,-46.39872 z" /><path
       id="path2130"
       style="opacity:1;fill:#ffffff;stroke-width:0;stroke-linecap:square"
       class="UnoptimicedTransforms"
       inkscape:label="person-crouching"
       d="m 135.46666,17.74827 c -3.98851,0 -7.92887,0.199341 -11.81374,0.583944 2.32939,10.159284 11.41908,17.739638 22.28494,17.739486 9.50716,-7.9e-5 17.65754,-5.802221 21.10776,-14.058057 C 157.00048,19.23724 146.41277,17.74827 135.46666,17.74827 Z m -0.7462,20.910869 c -4.60877,0.0019 -9.1675,1.293603 -11.62048,3.561539 -10.87314,10.052973 -9.10181,25.819159 -11.42514,44.115653 -2.18732,17.225379 -5.49589,11.982229 -7.12877,25.190709 -3.44081,27.83281 47.61823,28.70596 79.39619,27.47223 -10.40875,21.00047 -10.67508,41.92303 -7.24504,55.04315 2.96095,11.32566 9.50257,11.96666 12.50518,0.52451 3.9058,-14.88388 10.59342,-37.43248 15.00425,-51.70537 1.4783,-4.78356 4.21266,-11.743 2.84014,-15.52256 -11.20822,-15.26322 -49.67585,-23.79194 -64.24259,-21.13411 0.76426,-1.46473 1.90118,-4.12461 3.13831,-7.567501 -7.29697,-6.136328 -19.0069,-40.167712 -16.63671,-50.512678 -0.83546,8.163979 9.46111,43.791993 17.48679,49.769571 4.07583,3.035708 40.19374,14.176178 42.94053,13.986738 3.62939,-0.25026 4.6167,-2.8482 1.98851,-5.85183 -4.74569,-5.42367 -24.93607,-19.632466 -37.04477,-19.273246 0.99916,-3.940302 -0.0249,-14.054004 -1.79317,-23.314339 -0.0205,-8.130067 -1.67417,-15.619681 -6.24303,-20.602877 -2.65235,-2.892871 -7.31144,-4.181422 -11.9202,-4.179589 z m -24.88531,89.215221 c -2.87346,18.3956 0.72123,42.45927 2.04329,54.74188 -20.610289,-4.20602 -45.616465,1.78142 -53.519212,5.32887 -3.238958,1.45393 -9.218623,4.94151 -3.254065,8.52868 4.899688,2.94669 33.218326,2.32441 52.816417,4.74648 6.19947,0.76618 10.11387,3.59856 13.12426,0.42117 12.11153,-12.78341 16.15379,-43.20737 16.18196,-62.79669 -10.11296,-1.77479 -20.94314,-3.74555 -27.39265,-10.97039 z"
       sodipodi:nodetypes="scccsccsscsssccccscsccscccscsscc" /></g><g
     id="g5562"
     inkscape:label="dash"
     style="display:none"><path
       id="path4852"
       style="opacity:1;fill:#ffffff;stroke-width:1.00012"
       d="m 197.93985,36.525478 c -9.41068,1.24e-4 -17.03943,7.629107 -17.03927,17.039787 1.2e-4,9.410478 7.62879,17.039146 17.03927,17.03927 9.41068,1.63e-4 17.03967,-7.628589 17.03979,-17.03927 1.6e-4,-9.410883 -7.62891,-17.03995 -17.03979,-17.039787 z m -25.28166,32.106567 c -2.42551,0.05977 -4.87663,0.581415 -6.87555,1.97249 -9.07875,6.318022 -12.61044,22.755652 -19.82773,32.297775 -6.26489,8.28296 -9.80475,16.16735 -6.05182,22.53609 0,0 -3.63702,3.23563 -7.30447,16.97519 -3.22414,12.07881 -1.97556,15.84367 -4.33358,17.37878 -10.77174,7.01263 -23.01956,23.01989 -27.34614,31.59394 -3.098226,6.13983 -3.823658,13.4677 2.66496,11.00501 4.84743,-1.83978 38.96693,-33.75802 39.51645,-34.60719 2.17886,-3.36699 9.91636,-16.24084 14.76292,-33.48477 0.85915,-3.05685 2.84063,-6.41934 3.56361,-6.81096 12.29915,-6.66205 24.08587,-32.797993 24.08587,-32.797993 0,0 16.2478,14.789863 23.21098,15.384073 4.24542,0.32244 21.0121,-9.27163 27.67428,-18.937863 2.91531,-4.22986 0.13369,-6.88143 -4.2447,-4.93665 -5.51964,2.45169 -15.97565,8.84282 -22.29838,9.5157 -7.40984,-3.40376 -16.33968,-18.521462 -26.6485,-25.111132 0,0 -5.21206,-2.10399 -10.5482,-1.97249 z m -26.00254,0.03617 c -4.01766,0.0033 -7.75543,0.103113 -10.1291,0.385506 -3.79089,0.813065 -10.90918,4.062353 -25.27959,12.529984 -4.58649,4.300402 -5.57685,7.845802 -0.90589,7.428492 4.67095,-0.41731 18.22216,-8.487729 26.36221,-9.149833 7.5965,-0.299737 8.02047,0.711786 18.48104,2.355413 2.72644,-5.015663 5.55392,-9.655001 10.50324,-13.098427 0,0 -10.19306,-0.458351 -19.03191,-0.451135 z m 26.78286,49.786635 c 0,0 -5.05275,6.63131 -9.88105,9.88053 -1.8813,1.26603 -1.76292,0.873 -4.12077,5.48652 4.35612,5.17836 23.18265,6.15876 23.18265,6.15876 0,0 -13.23254,11.79365 -21.66172,33.72973 -2.0938,5.44889 -1.72895,11.94029 4.12843,8.86147 3.91062,-2.05555 38.84465,-40.88872 37.06233,-49.73753 -1.2463,-6.18758 -28.70987,-14.37948 -28.70987,-14.37948 z"
       sodipodi:nodetypes="ssssssssssssssscccssccssccscccscsccsssc"
       inkscape:label="person" /><path
       id="rect5392"
       style="opacity:1;fill:#ffffff;stroke-width:8.46667;stroke-linecap:round;stroke-linejoin:round"
       inkscape:label="rect5392"
       d="m 35.019051,73.935538 c -0.415473,0.678311 -0.821681,1.362652 -1.223698,2.050004 h 78.654117 c 1.25209,-0.725991 2.44372,-1.40841 3.57652,-2.050004 z m -7.810893,15.11794 c -0.290588,0.679355 -0.571955,1.363566 -0.850077,2.049487 h 78.063969 c -0.46429,-0.608029 -0.80896,-1.322138 -1.03043,-2.049487 z m 95.223132,0 c -1.6518,0.719999 -3.26825,1.424758 -4.78163,2.049487 h 25.71265 V 89.053478 Z M 21.937162,104.1709 c -0.186545,0.68157 -0.372153,1.3635 -0.546737,2.05001 H 138.57345 c 0.41065,-0.68524 0.84115,-1.36857 1.29243,-2.05001 z m -3.085083,15.11794 c -0.09311,0.68157 -0.18106,1.36472 -0.262516,2.05001 H 134.31221 c -0.074,-0.68142 -0.10846,-1.36559 -0.1018,-2.05001 z m -1.090373,15.11794 c -0.0031,0.35362 -0.01344,0.70551 -0.01344,1.05988 0,0.33088 0.0097,0.65939 0.0124,0.98961 H 129.94194 c 0.23416,-0.71908 0.46758,-1.39992 0.6997,-2.04949 z m 0.819589,15.11742 c 0.08103,0.68525 0.168277,1.36847 0.260966,2.05001 H 126.34267 c 0.0983,-0.63164 0.20881,-1.30823 0.34004,-2.05001 z m 2.79156,15.11794 c 0.174126,0.68648 0.359103,1.36846 0.545187,2.05001 h 91.865188 c 0.66421,-0.6951 1.337,-1.37972 2.01745,-2.05001 z" /><path
       id="path6619"
       style="display:inline;fill:#ffffff;stroke-width:47.7898"
       d="m 41.72045,206.78686 c 21.476167,28.22206 55.42781,46.39871 93.74621,46.39872 38.31845,-10e-6 72.27057,-18.17661 93.74674,-46.39872 z" /></g><g
     id="g5882"
     style="display:none;fill:#ffffff"
     inkscape:label="jump-alt"><path
       id="path5937"
       style="display:inline;fill:#ffffff;stroke-width:47.7898"
       d="m 41.72045,206.78686 c 21.476167,28.22206 55.42781,46.39871 93.74621,46.39872 38.31845,-10e-6 72.27057,-18.17661 93.74674,-46.39872 z" /><path
       style="display:none;opacity:1;fill:#ffffff;stroke:none;stroke-width:4.23333;stroke-linecap:round;stroke-linejoin:round;stroke-dasharray:none"
       d="m 57.200633,203.38003 c 9.36675,-42.6472 30.01449,-124.781368 117.579087,-127.430298 0.96919,15.623494 -9.86126,37.234818 -7.62675,43.377148 -62.59288,16.62912 -94.935857,64.8908 -102.802257,84.37093 z"
       id="path6930"
       sodipodi:nodetypes="ccccc" /><path
       id="path7027"
       style="display:inline;opacity:1;fill:#ffffff;stroke-width:1.17015"
       inkscape:label="person"
       d="m 160.94883,20.505208 c -3.53037,7.30041 -6.73532,15.169649 -11.07736,20.910351 -7.33,9.691164 -11.47168,18.915881 -7.0807,26.367383 0,0 -4.2553,3.785866 -8.54625,19.86132 -3.77229,14.132348 -2.31158,18.537028 -5.07049,20.333128 -12.60306,8.20486 -26.93331,26.93344 -31.995467,36.96518 -3.624961,7.18369 -4.473609,15.7576 3.118157,12.87622 5.67155,-2.15257 45.59195,-39.49753 46.2349,-40.49107 2.54929,-3.93942 11.60232,-19.001843 17.27285,-39.177452 1.00522,-3.576547 3.32336,-7.510823 4.16925,-7.969023 12.19932,-6.607975 23.87602,-29.421552 27.17664,-36.26652 -10.46579,-6.149353 -21.9723,-10.725448 -34.20153,-13.409517 z m 21.07882,39.106657 c 0,0 -5.91188,7.758904 -11.56105,11.560534 -2.20114,1.481269 -2.06271,1.021372 -4.82142,6.419246 5.09672,6.058744 27.12393,7.205762 27.12393,7.205762 0,0 -15.48195,13.798781 -25.34419,39.464253 -2.44978,6.37528 -2.02301,13.9701 4.8302,10.36785 4.57547,-2.40502 45.44858,-47.84014 43.36324,-58.19335 -1.45819,-7.239545 -33.59071,-16.824295 -33.59071,-16.824295 z"
       sodipodi:nodetypes="cscscssssccccsccsssc" /><path
       id="path7304"
       style="color:#000000;display:inline;fill:#ffffff;stroke-width:4.23333;stroke-linecap:round;stroke-linejoin:round;-inkscape-stroke:none"
       d="M 134.97057,56.263748 27.298592,182.08707 c 0.616548,1.43374 1.256913,2.85475 1.928047,4.25814 L 136.84953,60.578731 c 0.009,-0.850228 0.0724,-1.701213 0.18551,-2.548682 l -0.4563,-0.390157 z m 37.34397,31.956706 -14.2105,16.606226 c -3.48739,7.39012 -6.6031,12.61349 -8.01811,14.80013 -0.5556,0.85848 -0.51289,0.65947 -0.65423,0.80873 -0.14134,0.14926 -0.28989,0.30203 -0.47077,0.48266 -0.36177,0.36125 -0.83839,0.82553 -1.43144,1.3963 -1.18609,1.14154 -2.83024,2.69861 -4.80074,4.54494 -3.941,3.69263 -9.18301,8.53469 -14.59032,13.41985 -0.53633,0.48455 -1.07547,0.96578 -1.61385,1.45004 l -52.04954,60.82316 h 5.571236 L 175.52934,90.972741 173.92168,89.596597 Z m -45.46234,15.328266 -1.87688,2.19263 c 0.54339,-0.38644 1.087,-0.76405 1.63039,-1.12241 0.0594,-0.17178 0.14663,-0.5513 0.24649,-1.07022 z m 36.45359,32.99695 -56.48544,66.00682 h 5.5702 l 54.13262,-63.25763 c -1.39217,-0.56744 -2.46716,-1.60476 -3.21738,-2.74919 z m -69.358554,5.45445 -51.818025,60.55237 h 5.573303 l 42.591715,-49.77164 c 0.258519,-3.30593 1.500669,-6.5679 3.104203,-9.74565 0.167294,-0.33153 0.366303,-0.69031 0.548804,-1.03508 z" /></g><g
     inkscape:label="common"
     inkscape:groupmode="layer"
     id="layer1"
     sodipodi:insensitive="true"
     style="display:inline"><circle
       style="display:inline;fill:none;stroke:#ffffff;stroke-width:8.46667;stroke-linejoin:miter;stroke-miterlimit:4;stroke-dasharray:none;paint-order:normal"
       id="path61"
       cx="135.46666"
       cy="135.46666"
       r="130.41895"
       inkscape:label="outline" /><circle
       style="display:none;fill:none;stroke:#ff0000;stroke-width:25.4;stroke-linejoin:miter;stroke-miterlimit:4;stroke-dasharray:none;paint-order:normal"
       id="circle4181"
       cx="135.46666"
       cy="135.46666"
       r="130.41895"
       inkscape:label="outline-safe-area" /><path
       style="display:none;opacity:1;fill:#00ffff;stroke:none;stroke-width:8.46667;stroke-linejoin:miter;stroke-miterlimit:4;stroke-dasharray:none;paint-order:normal"
       d="m 149.74008,38.607216 c -12.91032,25.95103 -16.07133,33.432679 -43.97121,51.863541 -10.869559,7.18051 -29.778773,10.014483 -34.400283,31.181933 -3.53403,16.18656 5.30626,24.83194 22.10351,34.91355 23.954873,14.37757 34.663833,70.92438 53.243683,82.20914 1.74814,1.11552 25.16144,1.52184 39.78897,0.20055 11.14319,-1.00655 19.88627,-3.19026 22.7017,-14.44832 0.2892,-13.17167 -20.34604,-10.62272 -25.86757,-14.69665 -5.60431,-4.135 -29.78676,-53.2113 -14.74879,-92.2522 25.05185,-34.85167 71.62932,-67.742495 100.16573,-101.562534 0,0 -16.0144,-37.987695 -66.88642,-59.640674 -39.59777,31.643485 -37.16914,53.4620706 -52.12932,82.231664 z"
       id="path4541"
       sodipodi:nodetypes="cssscscccccc"
       inkscape:label="foot" /><path
       id="path5838"
       style="display:none;opacity:1;fill:#ff00ff;stroke-width:1.00012"
       d="m 197.93985,54.321231 c -9.41068,1.24e-4 -17.03943,7.629107 -17.03927,17.039787 1.2e-4,9.410478 7.62879,17.039146 17.03927,17.03927 9.41068,1.63e-4 17.03967,-7.628589 17.03979,-17.03927 1.6e-4,-9.410883 -7.62891,-17.03995 -17.03979,-17.039787 z m -25.28166,32.106567 c -2.42551,0.05977 -4.87663,0.581415 -6.87555,1.97249 -9.07875,6.318022 -12.61044,22.755652 -19.82773,32.297772 -6.26489,8.28296 -9.80475,16.16735 -6.05182,22.53609 0,0 -3.63702,3.23563 -7.30447,16.97519 -3.22414,12.07881 -1.97556,15.84367 -4.33358,17.37878 -10.77174,7.01263 -23.01956,23.01989 -27.34614,31.59394 -3.098226,6.13983 -3.823658,13.4677 2.66496,11.00501 4.84743,-1.83978 38.96693,-33.75802 39.51645,-34.60719 2.17886,-3.36699 9.91636,-16.24084 14.76292,-33.48477 0.85915,-3.05685 2.84063,-6.41934 3.56361,-6.81096 12.29915,-6.66205 24.08587,-32.79799 24.08587,-32.79799 0,0 16.2478,14.78986 23.21098,15.38407 4.24542,0.32244 21.0121,-9.27163 27.67428,-18.93786 2.91531,-4.22986 0.13369,-6.88143 -4.2447,-4.93665 -5.51964,2.45169 -15.97565,8.84282 -22.29838,9.5157 -7.40984,-3.40376 -16.33968,-18.521462 -26.6485,-25.111132 0,0 -5.21206,-2.10399 -10.5482,-1.97249 z m -26.00254,0.03617 c -4.01766,0.0033 -7.75543,0.103113 -10.1291,0.385506 -3.79089,0.813065 -10.90918,4.062353 -25.27959,12.529984 -4.58649,4.300402 -5.57685,7.845802 -0.90589,7.428492 4.67095,-0.41731 18.22216,-8.487729 26.36221,-9.149833 7.5965,-0.299737 8.02047,0.711786 18.48104,2.355413 2.72644,-5.015663 5.55392,-9.655001 10.50324,-13.098427 0,0 -10.19306,-0.458351 -19.03191,-0.451135 z m 26.78286,49.786632 c 0,0 -5.05275,6.63131 -9.88105,9.88053 -1.8813,1.26603 -1.76292,0.873 -4.12077,5.48652 4.35612,5.17836 23.18265,6.15876 23.18265,6.15876 0,0 -13.23254,11.79365 -21.66172,33.72973 -2.0938,5.44889 -1.72895,11.94029 4.12843,8.86147 3.91062,-2.05555 38.84465,-40.88872 37.06233,-49.73753 -1.2463,-6.18758 -28.70987,-14.37948 -28.70987,-14.37948 z"
       sodipodi:nodetypes="ssssssssssssssscccssccssccscccscsccsssc"
       inkscape:label="person" /><path
       id="path2184"
       style="display:none;opacity:1;fill:#ffffff;stroke:none;stroke-width:8.46667;stroke-linecap:square;stroke-linejoin:miter;stroke-dasharray:none"
       d="m 205.8932,136.01185 c -8.62198,-1.5e-4 -15.61155,6.67453 -15.61145,14.90813 1.9e-4,8.2334 6.98968,14.90777 15.61145,14.90762 8.62157,-1.2e-4 15.61074,-6.67441 15.61093,-14.90762 1e-4,-8.23341 -6.98915,-14.90801 -15.61093,-14.90813 z m -34.6692,4.54959 c -3.56524,0.0295 -19.20828,1.64404 -22.76037,3.27318 -10.40591,0.72907 -8.30395,1.41482 -17.85627,2.74092 -3.73478,0.49506 -11.21439,1.50471 -12.60492,1.73788 -3.71156,0.62239 -5.85116,2.55137 -3.06286,3.64526 1.20147,0.47137 2.35782,0.10139 4.50825,0.36587 1.40524,-0.57142 3.04207,-1.11396 5.00125,-1.59422 4.06382,-0.99619 14.16193,-2.68791 24.41246,-4.47828 10.25053,-1.79037 20.66484,-3.68934 24.83569,-4.93769 0.32686,-0.0978 0.65116,-0.18058 0.97307,-0.25166 -0.93773,-0.37583 -2.11168,-0.51231 -3.4463,-0.50126 z m 5.80688,1.26814 c -0.9666,0.0244 -1.97905,0.18382 -3.02927,0.49816 -8.69145,2.60135 -41.42991,7.50047 -49.30087,9.42992 -12.42395,3.04552 -11.02913,8.29571 -22.19554,8.85734 -15.732673,0.79128 -20.840536,3.78222 -24.6817,3.45095 -11.647259,-1.00451 -31.984189,-0.77571 -35.064525,0.66817 -9.001003,4.21923 -4.709609,5.99165 -2.056206,6.62492 3.292641,0.78586 31.936553,4.53996 36.013306,4.96507 4.948523,0.51601 22.03491,0.0948 32.142745,-1.52703 0.27411,-0.86639 0.91452,-1.55647 1.84588,-2.32648 0.95693,-0.79115 2.2652,-1.64658 3.99407,-2.62103 l 0.10749,-0.061 0.11678,-0.0351 c 0,0 11.7855,-3.44038 24.37319,-3.49178 4.04013,-0.0165 10.34012,-2.00428 16.84187,-4.20336 6.50174,-2.19906 13.23529,-4.58792 18.63865,-5.28702 0.37258,-0.0482 0.73781,-0.0686 1.09554,-0.0646 2.50423,0.0296 4.59769,1.30429 5.60173,3.28507 0.98716,1.94748 0.92221,4.47309 -0.39016,6.96753 0.29965,-0.11648 0.59776,-0.23428 0.89401,-0.35398 4.32028,-1.74553 7.37472,-7.58396 6.80888,-12.20908 -0.69655,-5.69347 -4.98972,-12.73748 -11.75587,-12.56667 z m -70.10011,11.89126 c -15.849411,-0.0996 -18.288823,5.05267 -31.689024,2.08411 -10.127432,-2.24351 -28.585561,-0.25828 -34.082157,1.35238 -5.496598,1.61063 -2.669717,5.86557 2.140955,6.01617 0.306346,0.01 0.647471,0.032 0.973067,0.0486 0.964016,-0.16763 2.128984,-0.28118 3.538802,-0.39791 2.558271,-0.21181 5.771053,-0.34419 9.250081,-0.40049 6.95806,-0.1126 14.96845,0.0807 20.85144,0.58808 1.608897,0.13875 3.810755,-0.473 7.566463,-1.28519 3.755701,-0.81222 9.043138,-1.7691 16.970543,-2.16783 5.41572,-0.27239 7.51757,-1.57444 10.0862,-3.31659 0.92708,-0.62879 1.91146,-1.3187 3.08612,-2.01694 -3.29946,-0.33571 -6.1704,-0.48851 -8.69249,-0.50436 z m 68.93584,4.03955 c -0.30833,-0.002 -0.62658,0.0177 -0.95343,0.0599 -10.41112,1.34701 -26.88156,9.46352 -35.6123,9.49917 -12.3969,0.0506 -24.08225,3.45095 -24.08225,3.45095 -6.78347,3.8234 -6.66061,5.67337 -2.59054,6.66006 3.33172,0.8077 23.64564,-0.7303 32.31069,-0.76637 12.52692,-0.0521 32.31271,-5.91206 34.53795,-9.10021 3.43427,-4.92041 1.01483,-9.77365 -3.61012,-9.80354 z"
       inkscape:label="person-surging"
       transform="translate(24.768169,-17.093525)" /><path
       id="path2195"
       style="display:none;opacity:1;fill:#ffffff;stroke:none;stroke-width:8.46667;stroke-linecap:square;stroke-linejoin:miter;stroke-dasharray:none"
       d="m 137.45242,126.53374 c -8.04352,-0.0269 -18.79117,0.45048 -20.18998,0.62735 -2.97157,0.37571 -4.81383,3.42124 -1.89136,4.07728 5.40402,1.2131 19.91471,3.98229 25.78603,3.85454 5.06963,3.20232 16.15512,7.83691 19.73212,8.7359 2.09441,-0.27837 11.05958,-2.12437 13.22039,-2.88561 -6.53415,-5.57526 -25.5336,-13.36093 -28.49697,-13.98468 -1.40683,-0.29612 -4.50408,-0.41256 -8.16023,-0.42478 z m 68.19429,3.55793 c -8.62199,-1.5e-4 -15.61155,6.67452 -15.61145,14.90813 1.9e-4,8.23341 6.98967,14.90777 15.61145,14.90762 8.62158,-1.2e-4 15.61074,-6.6744 15.61093,-14.90762 1e-4,-8.23342 -6.98914,-14.90801 -15.61093,-14.90813 z m -157.684695,4.73945 c -2.834981,-0.0542 -5.767009,3.53635 2.838861,10.02812 3.169725,2.39105 15.830593,10.2414 25.559163,16.26412 2.179994,1.34958 2.86667,0.704 5.296318,1.45263 10.106851,3.11413 18.835023,3.05356 18.835023,3.05356 0,0 8.11275,-6.28471 15.1448,-8.39432 4.77879,-1.43363 -19.34162,-6.72899 -28.030679,-7.0273 -6.296038,-0.21615 -6.95054,-0.16217 -9.223896,-2.07756 -9.150781,-5.13486 -19.654956,-12.5532 -30.41959,-13.29925 z m 129.068355,6.99833 c -0.9666,0.0244 -1.97802,0.18383 -3.02824,0.49816 -8.69147,2.60136 -34.25494,6.33081 -43.13535,8.44238 -10.93674,2.60053 -11.01122,7.45019 -11.01122,7.45019 -8.78906,0.21437 -20.382442,11.26867 -29.103634,15.59181 -2.792194,1.3841 -7.97428,-0.0784 -10.838615,0.15968 -20.537709,1.7069 -35.033608,6.15098 -38.113952,7.59489 -9.001021,4.21922 -5.219735,6.75941 -2.672189,7.73493 3.662656,1.40253 26.161323,-1.40154 43.441793,-1.32034 2.139775,0.0101 6.665245,-0.88825 8.454781,-0.92965 14.623706,-0.33867 39.238936,-13.9237 39.238936,-13.9237 0,0 1.6681,1.54704 8.87026,3.26388 11.26547,2.68545 32.3711,-4.23768 42.84596,-9.78597 3.58346,7.10941 17.12033,14.48567 23.36188,17.29559 3.42725,1.54293 31.08826,0.31811 31.40067,-9.36997 -0.78053,-5.73353 -20.03718,1.81925 -28.4856,-1.84692 -5.07303,-4.65065 -19.26639,-15.18526 -19.47013,-18.28829 -0.41295,-6.28947 -4.98918,-12.73748 -11.75535,-12.56667 z"
       inkscape:label="person-swimming"
       sodipodi:nodetypes="ssscccssscscscssscssccssscscsscccscsccss"
       class="UnoptimicedTransforms" /><path
       id="path7750"
       style="display:none;opacity:1;fill:#ffffff;stroke-width:0;stroke-linecap:square"
       d="m 145.93786,-9.6660765 c -12.63029,-1.767e-4 -22.86929,10.2385942 -22.8694,22.8688885 1.1e-4,12.630294 10.23911,22.869065 22.8694,22.868888 12.63009,-1.05e-4 22.86878,-10.238793 22.86889,-22.868888 -1.1e-4,-12.63009514 -10.23879,-22.8687836 -22.86889,-22.8688885 z m -11.2174,48.3252155 c -4.60877,0.0019 -9.1675,1.293601 -11.62048,3.561539 -10.87315,10.052983 -9.1018,25.819141 -11.42514,44.115653 -2.18732,17.225399 -5.49589,11.982215 -7.12877,25.190709 -3.44082,27.83284 47.6182,28.70597 79.39619,27.47223 -10.40876,21.0005 -10.67509,41.92302 -7.24504,55.04315 2.96095,11.32567 9.50256,11.96667 12.50518,0.52451 3.9058,-14.8839 10.59341,-37.43247 15.00425,-51.70537 1.4783,-4.78357 4.21266,-11.74299 2.84014,-15.52256 -11.20823,-15.26323 -49.67584,-23.79194 -64.24259,-21.13411 0.76426,-1.46473 1.90118,-4.12461 3.13831,-7.567501 -7.29698,-6.136334 -19.0069,-40.167701 -16.63671,-50.512678 -0.83546,8.163988 9.4611,43.791987 17.48679,49.769571 4.07584,3.035708 40.19374,14.176178 42.94053,13.986738 3.62939,-0.25027 4.6167,-2.84819 1.98851,-5.85183 -4.74569,-5.42367 -24.93606,-19.632466 -37.04477,-19.273246 0.99916,-3.940306 -0.0249,-14.053995 -1.79317,-23.314339 -0.0205,-8.130075 -1.67417,-15.619676 -6.24303,-20.602877 -2.65235,-2.892874 -7.31143,-4.181422 -11.9202,-4.179589 z M 109.8353,127.87445 c -2.87347,18.39561 0.72122,42.45926 2.04328,54.74188 -20.610311,-4.20603 -45.61669,1.78136 -53.519445,5.32882 -3.238961,1.45393 -9.218708,4.94127 -3.254144,8.52845 4.899693,2.94669 33.218482,2.32459 52.816589,4.74667 6.19948,0.76618 10.11387,3.59857 13.12426,0.42117 12.11154,-12.78342 16.15379,-43.20735 16.18196,-62.79669 -10.11297,-1.7748 -20.94299,-3.74546 -27.3925,-10.9703 z"
       class="UnoptimicedTransforms"
       inkscape:label="person-crouching"
       sodipodi:nodetypes="cccccccsscsssccccsssccscccscsscc" /></g><metadata
     id="metadata4562"><rdf:RDF><cc:Work
         rdf:about=""><cc:license
           rdf:resource="http://creativecommons.org/publicdomain/zero/1.0/" /></cc:Work><cc:License
         rdf:about="http://creativecommons.org/publicdomain/zero/1.0/"><cc:permits
           rdf:resource="http://creativecommons.org/ns#Reproduction" /><cc:permits
           rdf:resource="http://creativecommons.org/ns#Distribution" /><cc:permits
           rdf:resource="http://creativecommons.org/ns#DerivativeWorks" /></cc:License></rdf:RDF></metadata></svg>
